. 
 
http://www.torrenting.com          :     Once & For all ;)


               www . Torrenting . Com 

(((((((((((((= Enjoy No RAR releases =))))))))))))))))))))


...................................NFO:....................................

.[IMG]http://i.imgur.com/156dj.jpg[/IMG]
 
http://www.imdb.com/title/tt1341340/

In shock and denial over his Marine father's death in battle, star Lacrosse player Conor Sullivan...


General
Complete name                            : C:UsersrootDesktopA.Warriors.Heart.2011.DVDRip.Xvid.AC3-GBRA.Warriors.Heart.2011.DVDRip.Xvid.AC3-GBR.avi
Format                                   : AVI
Format/Info                              : Audio Video Interleave
File size                                : 946 MiB
Duration                                 : 1h 34mn
Overall bit rate                         : 1 392 Kbps
Writing application                      : VirtualDubMod 1.5.10.2 (build 2540/release)
Writing library                          : VirtualDubMod build 2540/release

Video
ID                                       : 0
Format                                   : MPEG-4 Visual
Format profile                           : Advanced Simple@L5
Format settings, BVOP                    : 1
Format settings, QPel                    : No
Format settings, GMC                     : No warppoints
Format settings, Matrix                  : Default (H.263)
Muxing mode                              : Packed bitstream
Codec ID                                 : XVID
Codec ID/Hint                            : XviD
Duration                                 : 1h 34mn
Bit rate                                 : 999 Kbps
Width                                    : 720 pixels
Height                                   : 384 pixels
Display aspect ratio                     : 1.875
Frame rate                               : 23.976 fps
Color space                              : YUV
Chroma subsampling                       : 4:2:0
Bit depth                                : 8 bits
Scan type                                : Progressive
Compression mode                         : Lossy
Bits/(Pixel*Frame)                       : 0.151
Stream size                              : 679 MiB (72%)
Writing library                          : XviD 1.2.1 (UTC 2008-12-04)

Audio
ID                                       : 1
Format                                   : AC-3
Format/Info                              : Audio Coding 3
Mode extension                           : CM (complete main)
Codec ID                                 : 2000
Duration                                 : 1h 34mn
Bit rate mode                            : Constant
Bit rate                                 : 384 Kbps
Channel(s)                               : 6 channels
Channel positions                        : Front: L C R, Side: L R, LFE
Sampling rate                            : 48.0 KHz
Bit depth                                : 16 bits
Compression mode                         : Lossy
Stream size                              : 261 MiB (28%)
Alignment                                : Split accross interleaves
Interleave, duration                     : 42 ms (1.00 video frame)
Interleave, preload duration             : 500 ms

Source A Warriors Heart 2011 DVDR-iGNiTiON-thanks

[IMG]http://i.imgur.com/A9slI.png[/IMG]
[IMG]http://i.imgur.com/hO1Uc.png[/IMG]
[IMG]http://i.imgur.com/FyIWW.png[/IMG]